<svg width="44" height="44" viewBox="0 0 44 44" fill="none" xmlns="http://www.w3.org/2000/svg">
<rect width="44" height="44" rx="10" fill="white"/>
<path d="M17.6426 11.5H27.3574C29.193 11.5001 30.4999 12.7515 30.5 14.2998V31.9004C30.4999 32.1008 30.4295 32.2371 30.3301 32.3271C30.2262 32.4211 30.0503 32.4999 29.7861 32.5C29.6557 32.5 29.6036 32.4993 29.5566 32.4922C29.5229 32.4871 29.4795 32.4757 29.3975 32.4395L22.7334 28.9277L22.5 28.8047L22.2666 28.9277L15.625 32.4268C15.1705 32.5816 14.7445 32.4657 14.5488 32.1875C14.5166 32.1262 14.5095 32.0995 14.5068 32.085C14.5015 32.0558 14.5 32.0209 14.5 31.9004V14.2998C14.5001 12.7515 15.807 11.5001 17.6426 11.5Z" fill="#FF1654" stroke="#1E1E1E"/>
</svg>
