<svg width="321" height="320" viewBox="0 0 321 320" fill="none" xmlns="http://www.w3.org/2000/svg">
<g filter="url(#filter0_n_506_3103)">
<mask id="path-1-inside-1_506_3103" fill="white">
<path fill-rule="evenodd" clip-rule="evenodd" d="M0.5 80C0.5 51.9974 0.5 37.9961 5.94967 27.3005C10.7433 17.8924 18.3924 10.2433 27.8005 5.44967C38.4961 0 52.4974 0 80.5 0H240.5C268.503 0 282.504 0 293.2 5.44967C302.608 10.2433 310.257 17.8924 315.05 27.3005C320.5 37.9961 320.5 51.9974 320.5 80V240C320.5 268.003 320.5 282.004 315.05 292.7C310.257 302.108 302.608 309.757 293.2 314.55C282.504 320 268.503 320 240.5 320H170.5V191.808C184.024 187.561 193.834 174.926 193.834 160.001C193.834 141.591 178.91 126.667 160.5 126.667C142.091 126.667 127.167 141.591 127.167 160.001C127.167 174.926 136.976 187.56 150.5 191.808V320H80.5C52.4974 320 38.4961 320 27.8005 314.55C18.3924 309.757 10.7433 302.108 5.94967 292.7C0.5 282.004 0.5 268.003 0.5 240V80Z"/>
</mask>
<path fill-rule="evenodd" clip-rule="evenodd" d="M0.5 80C0.5 51.9974 0.5 37.9961 5.94967 27.3005C10.7433 17.8924 18.3924 10.2433 27.8005 5.44967C38.4961 0 52.4974 0 80.5 0H240.5C268.503 0 282.504 0 293.2 5.44967C302.608 10.2433 310.257 17.8924 315.05 27.3005C320.5 37.9961 320.5 51.9974 320.5 80V240C320.5 268.003 320.5 282.004 315.05 292.7C310.257 302.108 302.608 309.757 293.2 314.55C282.504 320 268.503 320 240.5 320H170.5V191.808C184.024 187.561 193.834 174.926 193.834 160.001C193.834 141.591 178.91 126.667 160.5 126.667C142.091 126.667 127.167 141.591 127.167 160.001C127.167 174.926 136.976 187.56 150.5 191.808V320H80.5C52.4974 320 38.4961 320 27.8005 314.55C18.3924 309.757 10.7433 302.108 5.94967 292.7C0.5 282.004 0.5 268.003 0.5 240V80Z" fill="url(#paint0_linear_506_3103)"/>
<path d="M5.94967 27.3005L-2.96039 22.7606L-2.96039 22.7606L5.94967 27.3005ZM27.8005 5.44967L23.2606 -3.46039L23.2606 -3.46039L27.8005 5.44967ZM293.2 5.44967L288.66 14.3597L288.66 14.3597L293.2 5.44967ZM315.05 27.3005L323.96 22.7606L323.96 22.7606L315.05 27.3005ZM315.05 292.7L306.14 288.16L306.14 288.16L315.05 292.7ZM293.2 314.55L288.66 305.64L288.66 305.64L293.2 314.55ZM170.5 320H160.5V330H170.5V320ZM170.5 191.808L167.504 182.268L160.5 184.467V191.808H170.5ZM150.5 191.808H160.5V184.467L153.497 182.268L150.5 191.808ZM150.5 320V330H160.5V320H150.5ZM27.8005 314.55L23.2606 323.46L23.2606 323.46L27.8005 314.55ZM5.94967 292.7L14.8597 288.16L14.8597 288.16L5.94967 292.7ZM5.94967 27.3005L-2.96039 22.7606C-6.52323 29.753 -8.05384 37.3898 -8.78558 46.3458C-9.50778 55.1851 -9.5 66.1637 -9.5 80H0.5H10.5C10.5 65.8337 10.5078 55.8104 11.148 47.9744C11.7787 40.2552 12.9729 35.5435 14.8597 31.8404L5.94967 27.3005ZM27.8005 5.44967L23.2606 -3.46039C11.9708 2.29201 2.79201 11.4708 -2.96039 22.7606L5.94967 27.3005L14.8597 31.8404C18.6947 24.3139 24.8139 18.1947 32.3404 14.3597L27.8005 5.44967ZM80.5 0V-10C66.6637 -10 55.6851 -10.0078 46.8458 -9.28558C37.8898 -8.55384 30.253 -7.02323 23.2606 -3.46039L27.8005 5.44967L32.3404 14.3597C36.0435 12.4729 40.7552 11.2787 48.4744 10.648C56.3104 10.0078 66.3337 10 80.5 10V0ZM240.5 0V-10H80.5V0V10H240.5V0ZM293.2 5.44967L297.739 -3.46039C290.747 -7.02323 283.11 -8.55384 274.154 -9.28558C265.315 -10.0078 254.336 -10 240.5 -10V0V10C254.666 10 264.69 10.0078 272.526 10.648C280.245 11.2787 284.957 12.4729 288.66 14.3597L293.2 5.44967ZM315.05 27.3005L323.96 22.7606C318.208 11.4708 309.029 2.29201 297.739 -3.46039L293.2 5.44967L288.66 14.3597C296.186 18.1947 302.305 24.3139 306.14 31.8404L315.05 27.3005ZM320.5 80H330.5C330.5 66.1637 330.508 55.1851 329.786 46.3458C329.054 37.3898 327.523 29.753 323.96 22.7606L315.05 27.3005L306.14 31.8404C308.027 35.5435 309.221 40.2552 309.852 47.9744C310.492 55.8104 310.5 65.8337 310.5 80H320.5ZM320.5 240H330.5V80H320.5H310.5V240H320.5ZM315.05 292.7L323.96 297.239C327.523 290.247 329.054 282.61 329.786 273.654C330.508 264.815 330.5 253.836 330.5 240H320.5H310.5C310.5 254.166 310.492 264.19 309.852 272.026C309.221 279.745 308.027 284.457 306.14 288.16L315.05 292.7ZM293.2 314.55L297.739 323.46C309.029 317.708 318.208 308.529 323.96 297.239L315.05 292.7L306.14 288.16C302.305 295.686 296.186 301.805 288.66 305.64L293.2 314.55ZM240.5 320V330C254.336 330 265.315 330.008 274.154 329.286C283.11 328.554 290.747 327.023 297.739 323.46L293.2 314.55L288.66 305.64C284.957 307.527 280.245 308.721 272.526 309.352C264.69 309.992 254.666 310 240.5 310V320ZM170.5 320V330H240.5V320V310H170.5V320ZM170.5 191.808H160.5V320H170.5H180.5V191.808H170.5ZM193.834 160.001H183.834C183.834 170.434 176.979 179.292 167.504 182.268L170.5 191.808L173.496 201.349C191.068 195.83 203.834 179.419 203.834 160.001H193.834ZM160.5 126.667V136.667C173.387 136.667 183.834 147.114 183.834 160.001H193.834H203.834C203.834 136.068 184.433 116.667 160.5 116.667V126.667ZM127.167 160.001H137.167C137.167 147.114 147.614 136.667 160.5 136.667V126.667V116.667C136.568 116.667 117.167 136.068 117.167 160.001H127.167ZM150.5 191.808L153.497 182.268C144.021 179.291 137.167 170.433 137.167 160.001H127.167H117.167C117.167 179.419 129.932 195.829 147.503 201.349L150.5 191.808ZM150.5 320H160.5V191.808H150.5H140.5V320H150.5ZM80.5 320V330H150.5V320V310H80.5V320ZM27.8005 314.55L23.2606 323.46C30.253 327.023 37.8898 328.554 46.8458 329.286C55.6851 330.008 66.6637 330 80.5 330V320V310C66.3337 310 56.3104 309.992 48.4744 309.352C40.7552 308.721 36.0435 307.527 32.3404 305.64L27.8005 314.55ZM5.94967 292.7L-2.96039 297.239C2.79201 308.529 11.9708 317.708 23.2606 323.46L27.8005 314.55L32.3404 305.64C24.8139 301.805 18.6947 295.686 14.8597 288.16L5.94967 292.7ZM0.5 240H-9.5C-9.5 253.836 -9.50778 264.815 -8.78558 273.654C-8.05384 282.61 -6.52323 290.247 -2.96039 297.239L5.94967 292.7L14.8597 288.16C12.9729 284.457 11.7787 279.745 11.148 272.026C10.5078 264.19 10.5 254.166 10.5 240H0.5ZM0.5 80H-9.5V240H0.5H10.5V80H0.5Z" fill="#1E1E1E" mask="url(#path-1-inside-1_506_3103)"/>
</g>
<defs>
<filter id="filter0_n_506_3103" x="0.5" y="0" width="320" height="320" filterUnits="userSpaceOnUse" color-interpolation-filters="sRGB">
<feFlood flood-opacity="0" result="BackgroundImageFix"/>
<feBlend mode="normal" in="SourceGraphic" in2="BackgroundImageFix" result="shape"/>
<feTurbulence type="fractalNoise" baseFrequency="0.5 0.5" stitchTiles="stitch" numOctaves="3" result="noise" seed="8681" />
<feColorMatrix in="noise" type="luminanceToAlpha" result="alphaNoise" />
<feComponentTransfer in="alphaNoise" result="coloredNoise1">
<feFuncA type="discrete" tableValues="1 1 1 1 1 1 1 1 1 1 1 1 1 1 1 1 1 1 1 1 1 1 1 1 1 1 1 1 1 1 1 1 1 1 1 1 1 1 1 1 1 1 1 1 1 1 1 1 1 1 1 0 0 0 0 0 0 0 0 0 0 0 0 0 0 0 0 0 0 0 0 0 0 0 0 0 0 0 0 0 0 0 0 0 0 0 0 0 0 0 0 0 0 0 0 0 0 0 0 0 "/>
</feComponentTransfer>
<feComposite operator="in" in2="shape" in="coloredNoise1" result="noise1Clipped" />
<feFlood flood-color="rgba(0, 0, 0, 0.25)" result="color1Flood" />
<feComposite operator="in" in2="noise1Clipped" in="color1Flood" result="color1" />
<feMerge result="effect1_noise_506_3103">
<feMergeNode in="shape" />
<feMergeNode in="color1" />
</feMerge>
</filter>
<linearGradient id="paint0_linear_506_3103" x1="160.5" y1="0" x2="160.5" y2="320" gradientUnits="userSpaceOnUse">
<stop offset="0.403846" stop-color="#777777"/>
<stop offset="1" stop-color="#FF1654"/>
</linearGradient>
</defs>
</svg>
