<svg width="351" height="350" viewBox="0 0 351 350" fill="none" xmlns="http://www.w3.org/2000/svg">
<g filter="url(#filter0_gn_313_1103)">
<mask id="path-1-inside-1_313_1103" fill="white">
<path fill-rule="evenodd" clip-rule="evenodd" d="M15.5 95C15.5 66.9974 15.5 52.9961 20.9497 42.3005C25.7433 32.8924 33.3924 25.2433 42.8005 20.4497C53.4961 15 67.4974 15 95.5 15H255.5C283.503 15 297.504 15 308.2 20.4497C317.608 25.2433 325.257 32.8924 330.05 42.3005C335.5 52.9961 335.5 66.9974 335.5 95V255C335.5 283.003 335.5 297.004 330.05 307.7C325.257 317.108 317.608 324.757 308.2 329.55C297.504 335 283.503 335 255.5 335H185.5V206.808C199.024 202.561 208.834 189.927 208.834 175.001C208.834 156.591 193.91 141.667 175.501 141.667C157.091 141.667 142.167 156.591 142.167 175.001C142.167 189.926 151.977 202.56 165.5 206.808V335H95.5C67.4974 335 53.4961 335 42.8005 329.55C33.3924 324.757 25.7433 317.108 20.9497 307.7C15.5 297.004 15.5 283.003 15.5 255V95Z"/>
</mask>
<path fill-rule="evenodd" clip-rule="evenodd" d="M15.5 95C15.5 66.9974 15.5 52.9961 20.9497 42.3005C25.7433 32.8924 33.3924 25.2433 42.8005 20.4497C53.4961 15 67.4974 15 95.5 15H255.5C283.503 15 297.504 15 308.2 20.4497C317.608 25.2433 325.257 32.8924 330.05 42.3005C335.5 52.9961 335.5 66.9974 335.5 95V255C335.5 283.003 335.5 297.004 330.05 307.7C325.257 317.108 317.608 324.757 308.2 329.55C297.504 335 283.503 335 255.5 335H185.5V206.808C199.024 202.561 208.834 189.927 208.834 175.001C208.834 156.591 193.91 141.667 175.501 141.667C157.091 141.667 142.167 156.591 142.167 175.001C142.167 189.926 151.977 202.56 165.5 206.808V335H95.5C67.4974 335 53.4961 335 42.8005 329.55C33.3924 324.757 25.7433 317.108 20.9497 307.7C15.5 297.004 15.5 283.003 15.5 255V95Z" fill="#777777"/>
<path d="M20.9497 42.3005L12.0396 37.7606L12.0396 37.7606L20.9497 42.3005ZM42.8005 20.4497L38.2606 11.5396L38.2606 11.5396L42.8005 20.4497ZM308.2 20.4497L303.66 29.3597L303.66 29.3597L308.2 20.4497ZM330.05 42.3005L338.96 37.7606L338.96 37.7606L330.05 42.3005ZM330.05 307.7L321.14 303.16L321.14 303.16L330.05 307.7ZM308.2 329.55L303.66 320.64L303.66 320.64L308.2 329.55ZM185.5 335H175.5V345H185.5V335ZM185.5 206.808L182.504 197.268L175.5 199.467V206.808H185.5ZM165.5 206.808H175.5V199.467L168.497 197.267L165.5 206.808ZM165.5 335V345H175.5V335H165.5ZM42.8005 329.55L38.2606 338.46L38.2606 338.46L42.8005 329.55ZM20.9497 307.7L29.8597 303.16L29.8597 303.16L20.9497 307.7ZM20.9497 42.3005L12.0396 37.7606C8.47677 44.753 6.94616 52.3898 6.21442 61.3458C5.49222 70.1851 5.5 81.1637 5.5 95H15.5H25.5C25.5 80.8337 25.5078 70.8104 26.148 62.9744C26.7787 55.2552 27.9729 50.5435 29.8597 46.8404L20.9497 42.3005ZM42.8005 20.4497L38.2606 11.5396C26.9708 17.292 17.792 26.4708 12.0396 37.7606L20.9497 42.3005L29.8597 46.8404C33.6947 39.3139 39.8139 33.1947 47.3404 29.3597L42.8005 20.4497ZM95.5 15V5C81.6637 5 70.6851 4.99222 61.8458 5.71442C52.8898 6.44616 45.253 7.97677 38.2606 11.5396L42.8005 20.4497L47.3404 29.3597C51.0435 27.4729 55.7552 26.2787 63.4744 25.648C71.3104 25.0078 81.3337 25 95.5 25V15ZM255.5 15V5H95.5V15V25H255.5V15ZM308.2 20.4497L312.739 11.5396C305.747 7.97677 298.11 6.44616 289.154 5.71442C280.315 4.99222 269.336 5 255.5 5V15V25C269.666 25 279.69 25.0078 287.526 25.648C295.245 26.2787 299.957 27.4729 303.66 29.3597L308.2 20.4497ZM330.05 42.3005L338.96 37.7606C333.208 26.4708 324.029 17.292 312.739 11.5396L308.2 20.4497L303.66 29.3597C311.186 33.1947 317.305 39.3139 321.14 46.8404L330.05 42.3005ZM335.5 95H345.5C345.5 81.1637 345.508 70.1851 344.786 61.3458C344.054 52.3898 342.523 44.753 338.96 37.7606L330.05 42.3005L321.14 46.8404C323.027 50.5435 324.221 55.2552 324.852 62.9744C325.492 70.8104 325.5 80.8337 325.5 95H335.5ZM335.5 255H345.5V95H335.5H325.5V255H335.5ZM330.05 307.7L338.96 312.239C342.523 305.247 344.054 297.61 344.786 288.654C345.508 279.815 345.5 268.836 345.5 255H335.5H325.5C325.5 269.166 325.492 279.19 324.852 287.026C324.221 294.745 323.027 299.457 321.14 303.16L330.05 307.7ZM308.2 329.55L312.739 338.46C324.029 332.708 333.208 323.529 338.96 312.239L330.05 307.7L321.14 303.16C317.305 310.686 311.186 316.805 303.66 320.64L308.2 329.55ZM255.5 335V345C269.336 345 280.315 345.008 289.154 344.286C298.11 343.554 305.747 342.023 312.739 338.46L308.2 329.55L303.66 320.64C299.957 322.527 295.245 323.721 287.526 324.352C279.69 324.992 269.666 325 255.5 325V335ZM185.5 335V345H255.5V335V325H185.5V335ZM185.5 206.808H175.5V335H185.5H195.5V206.808H185.5ZM208.834 175.001H198.834C198.834 185.434 191.98 194.292 182.504 197.268L185.5 206.808L188.496 216.349C206.069 210.83 218.834 194.419 218.834 175.001H208.834ZM175.501 141.667V151.667C188.387 151.667 198.834 162.114 198.834 175.001H208.834H218.834C218.834 151.068 199.433 131.667 175.501 131.667V141.667ZM142.167 175.001H152.167C152.167 162.114 162.614 151.667 175.501 151.667V141.667V131.667C151.568 131.667 132.167 151.068 132.167 175.001H142.167ZM165.5 206.808L168.497 197.267C159.021 194.291 152.167 185.433 152.167 175.001H142.167H132.167C132.167 194.419 144.932 210.829 162.503 216.348L165.5 206.808ZM165.5 335H175.5V206.808H165.5H155.5V335H165.5ZM95.5 335V345H165.5V335V325H95.5V335ZM42.8005 329.55L38.2606 338.46C45.253 342.023 52.8898 343.554 61.8458 344.286C70.6851 345.008 81.6637 345 95.5 345V335V325C81.3337 325 71.3104 324.992 63.4744 324.352C55.7552 323.721 51.0435 322.527 47.3404 320.64L42.8005 329.55ZM20.9497 307.7L12.0396 312.239C17.792 323.529 26.9708 332.708 38.2606 338.46L42.8005 329.55L47.3404 320.64C39.8139 316.805 33.6947 310.686 29.8597 303.16L20.9497 307.7ZM15.5 255H5.5C5.5 268.836 5.49222 279.815 6.21442 288.654C6.94616 297.61 8.47677 305.247 12.0396 312.239L20.9497 307.7L29.8597 303.16C27.9729 299.457 26.7787 294.745 26.148 287.026C25.5078 279.19 25.5 269.166 25.5 255H15.5ZM15.5 95H5.5V255H15.5H25.5V95H15.5Z" fill="#1E1E1E" mask="url(#path-1-inside-1_313_1103)"/>
</g>
<defs>
<filter id="filter0_gn_313_1103" x="0.5" y="0" width="350" height="350" filterUnits="userSpaceOnUse" color-interpolation-filters="sRGB">
<feFlood flood-opacity="0" result="BackgroundImageFix"/>
<feBlend mode="normal" in="SourceGraphic" in2="BackgroundImageFix" result="shape"/>
<feTurbulence type="fractalNoise" baseFrequency="1.6666666269302368 1.6666666269302368" numOctaves="3" seed="2123" />
<feDisplacementMap in="shape" scale="30" xChannelSelector="R" yChannelSelector="G" result="displacedImage" width="100%" height="100%" />
<feMerge result="effect1_texture_313_1103">
<feMergeNode in="displacedImage"/>
</feMerge>
<feTurbulence type="fractalNoise" baseFrequency="1 1" stitchTiles="stitch" numOctaves="3" result="noise" seed="346" />
<feColorMatrix in="noise" type="luminanceToAlpha" result="alphaNoise" />
<feComponentTransfer in="alphaNoise" result="coloredNoise1">
<feFuncA type="discrete" tableValues="1 1 1 1 1 1 1 1 1 1 1 1 1 1 1 1 1 1 1 1 1 1 1 1 1 1 1 1 1 1 1 1 1 1 1 1 1 1 1 1 1 1 1 1 1 1 1 1 1 1 1 0 0 0 0 0 0 0 0 0 0 0 0 0 0 0 0 0 0 0 0 0 0 0 0 0 0 0 0 0 0 0 0 0 0 0 0 0 0 0 0 0 0 0 0 0 0 0 0 0 "/>
</feComponentTransfer>
<feComposite operator="in" in2="effect1_texture_313_1103" in="coloredNoise1" result="noise1Clipped" />
<feFlood flood-color="rgba(0, 0, 0, 0.15)" result="color1Flood" />
<feComposite operator="in" in2="noise1Clipped" in="color1Flood" result="color1" />
<feMerge result="effect2_noise_313_1103">
<feMergeNode in="effect1_texture_313_1103" />
<feMergeNode in="color1" />
</feMerge>
</filter>
</defs>
</svg>
