<svg width="20" height="20" viewBox="0 0 20 20" fill="none" xmlns="http://www.w3.org/2000/svg">
<g clip-path="url(#clip0_84_810)">
<path fill-rule="evenodd" clip-rule="evenodd" d="M17.7451 10C17.7451 9.56471 17.7051 9.12 17.624 8.67529L19.8134 6.77765L17.7357 3.22706L14.9734 4.14824C14.2757 3.56942 13.4804 3.11294 12.6416 2.81058L12.0722 0H7.92867L7.35927 2.80942C6.51104 3.11294 5.72987 3.56235 5.02633 4.14706L2.26516 3.22706L0.1875 6.77765L2.37692 8.67529C2.29573 9.12 2.25573 9.56471 2.25573 10C2.25573 10.4353 2.29573 10.88 2.37691 11.3247L0.1875 13.2224L2.26515 16.7729L5.0275 15.8518C5.72515 16.4306 6.52044 16.8871 7.35927 17.1894L7.92867 20H12.0722L12.6416 17.1906C13.4887 16.8871 14.271 16.4376 14.9746 15.8529L17.7357 16.7741L19.8134 13.2235L17.624 11.3259C17.7051 10.88 17.7451 10.4353 17.7451 10M10.0004 14.1176C7.72985 14.1176 5.88278 12.2706 5.88278 10C5.88278 7.72942 7.72985 5.88235 10.0004 5.88235C12.271 5.88235 14.1181 7.72942 14.1181 10C14.1181 12.2706 12.271 14.1176 10.0004 14.1176Z" fill="#1E1E1E"/>
</g>
<defs>
<clipPath id="clip0_84_810">
<rect width="20" height="20" fill="white"/>
</clipPath>
</defs>
</svg>
